<svg width="34" height="22" viewBox="0 0 34 22" fill="none" xmlns="http://www.w3.org/2000/svg">
<path d="M11.2212 22C8.30426 22 5.55914 20.8715 3.48462 18.8181C1.39626 16.7509 0.238397 13.9944 0.22292 11.0562C0.208246 8.118 1.33758 5.35007 3.40477 3.26171C5.47114 1.17334 8.2277 0.015477 11.1659 0H11.2743C14.1954 0.014663 16.9372 1.15948 19.0003 3.22178C21.0635 5.28407 22.2075 8.02674 22.2221 10.9438C22.2367 13.882 21.1075 16.6499 19.0403 18.7383C16.973 20.8266 14.2165 21.9845 11.2791 22C11.2596 22 11.24 22 11.2212 22ZM12.0378 15.5841V19.9059C13.216 18.7823 14.1237 17.4697 14.7543 16.0559C13.8645 15.8001 12.9536 15.6428 12.0378 15.5849V15.5841ZM7.68499 16.0576C8.14861 17.0899 8.76054 18.0637 9.51096 18.9518C9.79212 19.2842 10.092 19.6036 10.4081 19.9059V15.5849C9.48984 15.6437 8.5764 15.8008 7.68499 16.0576ZM4.46566 17.4924C4.52026 17.5486 4.57485 17.6048 4.63026 17.6595C5.64062 18.6593 6.83677 19.4016 8.14124 19.8546C7.31995 18.8556 6.65263 17.7646 6.1458 16.61C5.56973 16.8594 5.00833 17.1535 4.46566 17.4924ZM16.2919 16.6067C15.7916 17.7564 15.13 18.8492 14.311 19.8473C15.7142 19.3559 16.9658 18.5403 17.9753 17.49C17.4318 17.1511 16.8687 16.8568 16.2919 16.6067ZM1.88677 11.8148C2.02285 13.4028 2.55492 14.9086 3.43492 16.2164C4.12426 15.7732 4.84292 15.3935 5.58114 15.0789C5.26173 14.0238 5.06944 12.9295 5.00995 11.8148H1.88677ZM16.8533 15.0741C17.594 15.3886 18.3135 15.7683 19.0052 16.2123C19.8648 14.9332 20.4181 13.4314 20.5575 11.814H17.4261C17.365 12.9173 17.1736 14.0116 16.8533 15.0733V15.0741ZM6.64285 11.8148C6.69826 12.7396 6.85795 13.6474 7.11788 14.5257C8.19349 14.2063 9.29833 14.0148 10.4081 13.9521V11.8148H6.64285ZM12.0378 13.9521C13.145 14.0148 14.2459 14.2046 15.3182 14.5224C15.5781 13.6392 15.737 12.7306 15.7948 11.8148H12.0378V13.9521ZM17.4212 10.1852H20.5583C20.4222 8.59793 19.8901 7.09134 19.0101 5.78356C18.3102 6.23415 17.5793 6.61874 16.8288 6.93571C17.1572 7.99741 17.3544 9.0893 17.4212 10.1852ZM12.0378 10.1852H15.7891C15.7256 9.27509 15.561 8.36814 15.2929 7.48488C14.2287 7.79778 13.1361 7.986 12.0378 8.04793V10.1852ZM6.6518 10.1852H10.4073V8.04793C9.30812 7.986 8.21384 7.79778 7.14803 7.48326C6.90033 8.30137 6.73736 9.152 6.66403 10.0231C6.65914 10.0768 6.65507 10.1306 6.6518 10.1843V10.1852ZM1.88677 10.1852H5.01811C5.02462 10.0858 5.03195 9.98635 5.04011 9.88691C5.12566 8.87249 5.31795 7.88415 5.61129 6.93407C4.86166 6.61712 4.13321 6.23334 3.43411 5.78356C2.55329 7.09215 2.02202 8.59793 1.88595 10.1852H1.88677ZM12.0378 2.19919V6.41585C12.9405 6.358 13.8377 6.20481 14.7144 5.95629C14.2622 4.96712 13.6698 4.02356 12.9348 3.15334C12.6538 2.82088 12.3539 2.50148 12.0378 2.2V2.19919ZM7.72573 5.95466C8.60412 6.20481 9.5037 6.358 10.4073 6.41585V2.19837C9.26984 3.28207 8.36454 4.55481 7.72573 5.95466ZM14.1823 2.10466C15.0468 3.12888 15.7362 4.24193 16.2552 5.40874C16.8467 5.15534 17.4228 4.85466 17.9794 4.50756C17.9362 4.46274 17.8922 4.41793 17.8482 4.37393C16.8011 3.32688 15.5487 2.55771 14.1823 2.10466ZM4.46566 4.50756C5.02055 4.85385 5.59499 5.15371 6.18411 5.40629C6.71211 4.21748 7.40795 3.10771 8.25696 2.10548C6.87751 2.56422 5.61536 3.344 4.56262 4.40734C4.53002 4.44074 4.49744 4.47334 4.46566 4.50674V4.50756Z" fill="black"/>
<path d="M22.2232 -7.62939e-06H22.2225C16.1473 -7.62939e-06 11.2225 4.92486 11.2225 11C11.2225 17.0751 16.1473 22 22.2225 22H22.2232C28.2984 22 33.2232 17.0751 33.2232 11C33.2232 4.92486 28.2984 -7.62939e-06 22.2232 -7.62939e-06Z" fill="black"/>
<path d="M22.2237 1.29799C16.8736 1.29799 12.5208 5.64992 12.5208 11.0008C12.5208 16.3517 16.8736 20.7012 22.2237 20.7012C27.5738 20.7012 31.9257 16.3501 31.9257 11.0008C31.9257 5.65155 27.5738 1.29799 22.2237 1.29799ZM25.1765 6.54377C26.2554 6.54377 27.1321 7.42051 27.1321 8.49937C27.1321 9.57814 26.2554 10.4574 25.1765 10.4574C24.0978 10.4574 23.2185 9.58056 23.2185 8.49937C23.2185 7.41807 24.0969 6.54377 25.1765 6.54377ZM19.2724 6.54377C20.3513 6.54377 21.228 7.42051 21.228 8.49937C21.228 9.57814 20.3513 10.4574 19.2724 10.4574C18.1936 10.4574 17.3144 9.58056 17.3144 8.49937C17.3144 7.41807 18.1927 6.54377 19.2724 6.54377ZM22.2237 17.2358C19.5046 17.2358 17.2933 15.0252 17.2933 12.3061H18.5913C18.5913 14.3098 20.2208 15.9369 22.2237 15.9369C24.2265 15.9369 25.8545 14.3089 25.8545 12.3061H27.1525C27.1525 15.0252 24.9403 17.2358 22.2228 17.2358H22.2237Z" fill="white"/>
</svg>
